<?xml version="1.0" encoding="utf-8"?>
<!-- Generator: Adobe Illustrator 22.0.0, SVG Export Plug-In . SVG Version: 6.00 Build 0)  -->
<svg version="1.1" id="Слой_1" xmlns="http://www.w3.org/2000/svg" xmlns:xlink="http://www.w3.org/1999/xlink" x="0px" y="0px"
	 viewBox="0 0 200.1 38.8" style="enable-background:new 0 0 200.1 38.8;" xml:space="preserve">
<style type="text/css">
	.st0{fill:#006DB5;}
</style>
<g>
	<path class="st0" d="M0,27.9V0.6h9v27.3c0,1.7,0.6,2.9,1.7,3.5c1.1,0.6,3,1,5.7,1c2.7,0,4.5-0.3,5.6-1c1.1-0.6,1.6-1.8,1.6-3.5V0.6
		h9v27.3c0,7.3-5.5,10.9-16.4,10.9C5.4,38.8,0,35.2,0,27.9z"/>
	<path class="st0" d="M40.7,0.6h9.2L68,26.3V0.6h8.1v37.6h-9.2L48.7,12.1v26.1h-8.1V0.6z"/>
	<path class="st0" d="M84.2,0.6h9v37.6h-9V0.6z"/>
	<path class="st0" d="M110.1,7H98.5V0.6h32.2V7h-11.5v31.2h-9V7z"/>
	<path class="st0" d="M135.9,0.6h28.7V7h-19.7v8.6h17.7v6.4h-17.7v9.7h20.2v6.4h-29.3V0.6z"/>
	<path class="st0" d="M183.4,38.6c-1.3-0.2-2.8-0.4-4.4-0.9c-1.8-0.5-3.2-1.1-4.4-1.8s-2.1-1.8-2.9-3.2c-0.8-1.4-1.2-3-1.2-4.8V11.4
		c0-7.6,5.8-11.4,17.5-11.4c3,0,7,0.4,11.9,1.3v6.8c-4.5-1.1-8.4-1.6-11.8-1.6c-1.4,0-2.5,0-3.3,0.1c-0.8,0.1-1.6,0.3-2.5,0.6
		c-1.8,0.6-2.7,2-2.7,4.1v16c0,3.4,3.1,5.1,9.3,5.1c2.7,0,6.4-0.6,11.3-1.7v6.8c-4.1,0.9-8.2,1.3-12.2,1.3
		C186.2,38.8,184.7,38.7,183.4,38.6z"/>
</g>
</svg>
