<svg width="21" height="20" viewBox="0 0 21 20" fill="none" xmlns="http://www.w3.org/2000/svg">
<path d="M12.1695 11.71L13.5695 9.29C13.6595 9.14 13.6195 8.95 13.4895 8.84L12.0095 7.68C12.0395 7.46 12.0595 7.23 12.0595 7C12.0595 6.77 12.0395 6.54 12.0095 6.31L13.4895 5.15C13.6195 5.04 13.6595 4.85 13.5695 4.7L12.1695 2.28C12.0795 2.13 11.8995 2.07 11.7395 2.13L9.99952 2.83C9.63952 2.55 9.24952 2.32 8.81952 2.14L8.55952 0.29C8.54274 0.209122 8.49895 0.136356 8.43534 0.0836556C8.37174 0.0309552 8.2921 0.00145466 8.20952 0H5.40951C5.23951 0 5.08952 0.13 5.05951 0.3L4.79952 2.15C4.37952 2.33 3.97952 2.56 3.61951 2.84L1.87952 2.14C1.71952 2.08 1.53952 2.14 1.44952 2.29L0.049515 4.71C-0.040485 4.86 -0.000484794 5.05 0.129515 5.16L1.60951 6.32C1.57951 6.54 1.55951 6.77 1.55951 7C1.55951 7.23 1.57951 7.46 1.60951 7.69L0.129515 8.85C-0.000484794 8.96 -0.040485 9.15 0.049515 9.3L1.44952 11.72C1.53952 11.87 1.71952 11.93 1.87952 11.87L3.61951 11.17C3.97952 11.45 4.36952 11.68 4.79952 11.86L5.05951 13.71C5.08952 13.87 5.23951 14 5.40951 14H8.20952C8.37952 14 8.52952 13.87 8.55952 13.7L8.81952 11.85C9.23952 11.67 9.63952 11.44 9.99952 11.16L11.7395 11.86C11.8995 11.92 12.0795 11.86 12.1695 11.71ZM6.80952 9C5.70952 9 4.80951 8.1 4.80951 7C4.80951 5.9 5.70952 5 6.80952 5C7.90952 5 8.80952 5.9 8.80952 7C8.80952 8.1 7.90952 9 6.80952 9ZM19.9195 16.67L18.9595 15.93C18.9795 15.79 18.9995 15.64 18.9995 15.49C18.9995 15.34 18.9895 15.19 18.9595 15.05L19.9095 14.31C19.9895 14.24 20.0195 14.12 19.9595 14.02L19.0595 12.47C19.0095 12.37 18.8895 12.34 18.7795 12.37L17.6695 12.82C17.4395 12.64 17.1895 12.49 16.9095 12.38L16.7395 11.2C16.7356 11.1466 16.7119 11.0965 16.6731 11.0595C16.6343 11.0226 16.5831 11.0013 16.5295 11H14.7395C14.6295 11 14.5295 11.08 14.5195 11.19L14.3495 12.37C14.0795 12.49 13.8195 12.63 13.5895 12.81L12.4795 12.36C12.4286 12.3408 12.3725 12.3404 12.3212 12.3587C12.2699 12.377 12.2268 12.4129 12.1995 12.46L11.2995 14.01C11.2495 14.11 11.2595 14.23 11.3495 14.3L12.2995 15.04C12.2583 15.3319 12.2583 15.6281 12.2995 15.92L11.3495 16.66C11.2695 16.73 11.2395 16.85 11.2995 16.95L12.1995 18.5C12.2495 18.6 12.3695 18.63 12.4795 18.6L13.5895 18.15C13.8195 18.33 14.0695 18.48 14.3495 18.59L14.5195 19.77C14.5395 19.88 14.6295 19.96 14.7395 19.96H16.5295C16.6395 19.96 16.7395 19.88 16.7495 19.77L16.9195 18.59C17.1895 18.47 17.4495 18.33 17.6695 18.15L18.7895 18.6C18.8895 18.64 19.0095 18.6 19.0695 18.5L19.9695 16.95C20.0295 16.86 19.9995 16.74 19.9195 16.67ZM15.6295 16.83C15.2713 16.8299 14.9279 16.6875 14.6747 16.4341C14.4215 16.1807 14.2794 15.8372 14.2795 15.479C14.2796 15.1208 14.4221 14.7774 14.6754 14.5242C14.9288 14.271 15.2723 14.1289 15.6305 14.129C15.9887 14.1291 16.3321 14.2715 16.5853 14.5249C16.8385 14.7783 16.9806 15.1218 16.9805 15.48C16.9804 15.8382 16.838 16.1816 16.5846 16.4348C16.3312 16.688 15.9877 16.8301 15.6295 16.83Z" fill="#235E8F"/>
</svg>
