<svg width="22" height="20" viewBox="0 0 22 20" fill="none" xmlns="http://www.w3.org/2000/svg">
<path d="M21.7514 17.0094L12.823 1.05134C12.6452 0.733304 12.3824 0.467756 12.0623 0.282714C11.7421 0.0976731 11.3764 0 11.0039 0C10.6313 0 10.2656 0.0976731 9.94546 0.282714C9.62528 0.467756 9.36247 0.733304 9.18474 1.05134L0.26272 17.0094C0.0862872 17.3162 -0.00424439 17.6626 0.000152879 18.0141C0.00455015 18.3655 0.103723 18.7097 0.287781 19.0122C0.471839 19.3148 0.734352 19.5653 1.04914 19.7386C1.36393 19.9119 1.72 20.002 2.08184 20H19.9323C20.2905 19.9996 20.6424 19.909 20.9537 19.737C21.265 19.565 21.525 19.3174 21.7083 19.0186C21.8916 18.7197 21.992 18.3798 21.9995 18.032C22.0071 17.6842 21.9216 17.3405 21.7514 17.0344V17.0094ZM10.1811 5.01588C10.1811 4.78406 10.2759 4.56174 10.4447 4.39782C10.6134 4.2339 10.8423 4.14181 11.081 4.14181C11.3197 4.14181 11.5486 4.2339 11.7173 4.39782C11.8861 4.56174 11.9809 4.78406 11.9809 5.01588V12.5079C11.9809 12.7397 11.8861 12.9621 11.7173 13.126C11.5486 13.2899 11.3197 13.382 11.081 13.382C10.8423 13.382 10.6134 13.2899 10.4447 13.126C10.2759 12.9621 10.1811 12.7397 10.1811 12.5079V5.01588ZM11.081 17.409C10.8522 17.409 10.6285 17.3431 10.4382 17.2196C10.2479 17.0961 10.0996 16.9206 10.012 16.7152C9.92446 16.5099 9.90154 16.2839 9.94619 16.0659C9.99083 15.8479 10.101 15.6477 10.2628 15.4905C10.4247 15.3333 10.6308 15.2263 10.8553 15.1829C11.0797 15.1396 11.3123 15.1618 11.5238 15.2469C11.7352 15.332 11.9159 15.476 12.043 15.6608C12.1702 15.8456 12.238 16.0629 12.238 16.2852C12.238 16.4327 12.2081 16.5789 12.15 16.7152C12.0918 16.8516 12.0066 16.9755 11.8991 17.0798C11.7917 17.1842 11.6641 17.2669 11.5238 17.3234C11.3834 17.3799 11.2329 17.409 11.081 17.409Z" fill="#235E8F"/>
</svg>
