<svg width="182" height="35" viewBox="0 0 182 35" fill="none" xmlns="http://www.w3.org/2000/svg">
<path d="M0 24.7885V0.533188H8.15918V24.7885C8.15918 26.2989 8.70312 27.3651 9.70036 27.8982C10.6976 28.4312 12.4201 28.7866 14.8678 28.7866C17.3156 28.7866 18.9474 28.5201 19.9447 27.8982C20.9419 27.3651 21.3952 26.2989 21.3952 24.7885V0.533188H29.5544V24.7885C29.5544 31.2743 24.5682 34.4729 14.6865 34.4729C4.89551 34.4729 0 31.2743 0 24.7885Z" fill="black"/>
<path d="M36.8973 0.533188H45.2378L61.6468 23.3669V0.533188H68.9901V33.9398H60.6496L44.1499 10.7506V33.9398H36.8066V0.533188H36.8973Z" fill="black"/>
<path d="M76.334 0.533188H84.4932V33.9398H76.334V0.533188Z" fill="black"/>
<path d="M99.8141 6.21941H89.2979V0.533188H118.49V6.21941H108.064V33.9398H99.9048V6.21941H99.8141Z" fill="#235E8F"/>
<path d="M123.203 0.533188H149.222V6.21941H131.363V13.8603H147.409V19.5465H131.363V28.1647H149.675V33.8509H123.113V0.533188H123.203Z" fill="#235E8F"/>
<path d="M166.266 34.295C165.088 34.1174 163.728 33.9397 162.277 33.4954C160.645 33.0512 159.376 32.5181 158.288 31.8962C157.2 31.2742 156.384 30.2969 155.659 29.0531C154.934 27.8092 154.571 26.3876 154.571 24.7884V10.1286C154.571 3.3762 159.829 0 170.436 0C173.156 0 176.782 0.355389 181.225 1.15501V7.19663C177.145 6.21931 173.609 5.77507 170.527 5.77507C169.258 5.77507 168.261 5.77507 167.535 5.86392C166.81 5.95277 166.085 6.13046 165.269 6.397C163.637 6.93009 162.821 8.17395 162.821 10.0397V24.2553C162.821 27.2761 165.632 28.7865 171.252 28.7865C173.7 28.7865 177.054 28.2534 181.497 27.2761V33.3177C177.78 34.1174 174.063 34.4727 170.436 34.4727C168.805 34.4727 167.445 34.3839 166.266 34.295Z" fill="#235E8F"/>
</svg>
