<svg width="93" height="63" viewBox="0 0 93 63" fill="none" xmlns="http://www.w3.org/2000/svg">
<path d="M41.3906 26.8812C41.3685 33.0403 41.366 39.1994 41.3118 45.3388C41.2776 47.594 40.9268 49.8331 40.2697 51.9907C38.8211 56.8785 35.5888 59.9901 30.6861 61.2614C24.1519 62.9798 17.2845 62.9798 10.7503 61.2614C4.53205 59.6526 1.4525 55.255 0.469504 49.1501C0.139818 47.0088 -0.0167198 44.8445 0.00141183 42.6781C0.00141183 33.7712 0.00141183 24.8692 0.00141183 15.9722C0.00141183 14.2476 0.00141182 14.2476 1.78509 14.2476C6.04966 14.2476 10.3167 14.2821 14.5813 14.223C15.648 14.2082 16.0077 14.4127 16.0003 15.5829C15.9461 24.9768 15.9732 34.3731 15.9658 43.767C15.9356 44.8787 16.0785 45.9883 16.3896 47.056C17.0252 49.0712 18.3014 49.8473 20.8857 49.8029C23.2434 49.7635 24.5122 48.9037 25.0739 46.9476C25.4755 45.5482 25.4558 44.107 25.4558 42.6732C25.4558 33.6907 25.4854 24.7058 25.4139 15.7233C25.4139 14.4176 25.8007 14.2156 26.9734 14.2452C31.7701 14.3289 36.5668 14.3092 41.3635 14.3265L41.3906 26.8812Z" fill="#232021"/>
<path d="M41.3905 26.8809L41.3535 14.3163C43.1594 14.299 44.9628 14.267 46.7735 14.267C57.9733 14.267 69.1705 14.2818 80.3703 14.235C81.4912 14.235 81.7253 14.5528 81.7056 15.6072C81.639 19.0095 81.6514 22.4167 81.7056 25.8215C81.7179 26.6961 81.4444 26.9301 80.5969 26.9178C77.2735 26.8759 73.9451 26.9474 70.629 26.8759C69.6091 26.8513 69.4243 27.1913 69.4267 28.1078C69.4579 38.7326 69.4653 49.3575 69.4489 59.9824C69.4489 61.739 69.6534 61.5296 67.8549 61.5345C63.5904 61.5345 59.3233 61.4926 55.0588 61.569C53.8442 61.5912 53.4697 61.3226 53.4771 60.0366C53.5362 49.4947 53.4894 38.9503 53.5412 28.4083C53.5412 27.1765 53.248 26.8217 51.9866 26.8562C48.4562 26.9499 44.9258 26.8858 41.3905 26.8809Z" fill="#235E8F"/>
<path d="M92.8093 9.85466C92.5161 10.3301 92.0924 10.8549 91.8509 11.4511C91.4839 12.3676 90.9 11.9044 90.3407 11.8182C89.7476 11.6998 89.1317 11.8124 88.6189 12.1329C88.106 12.4534 87.7349 12.9577 87.5814 13.5427C87.271 14.5676 86.5689 14.3212 85.9604 14.2621C85.3519 14.203 84.5117 14.6415 84.1964 13.4959C83.7874 11.998 82.6295 11.2786 81.2129 11.6457C80.4738 11.8404 80.2817 11.5496 80.0402 11.0471C79.8776 10.7169 79.6929 10.3991 79.5155 10.0764C79.2346 9.57134 79.0572 9.21411 79.6756 8.67211C80.7596 7.72361 80.799 6.35135 79.8185 5.27967C79.2962 4.71057 79.3849 4.36319 79.7495 3.83351C80.3457 2.97123 80.6488 1.92172 82.1984 2.43416C83.2479 2.77907 84.2728 1.98824 84.5635 0.931335C84.8296 -0.0270225 85.3642 7.76487e-05 86.086 7.76487e-05C87.0419 0.0222505 87.9411 -0.155132 88.2121 1.2861C88.4142 2.36518 89.7667 2.99094 90.8877 2.65589C91.7352 2.40952 91.9495 2.78646 92.223 3.35803C92.4091 3.76857 92.6197 4.16758 92.8537 4.55289C93.0581 4.87317 93.0606 5.0678 92.7822 5.38807C91.4272 6.94509 91.4026 7.65955 92.5679 9.25107C92.6861 9.41859 92.8807 9.52453 92.8093 9.85466ZM89.7273 7.14465C89.7134 6.19308 89.3343 5.28325 88.6685 4.60325C88.0028 3.92325 87.1011 3.52508 86.1501 3.49106C84.1792 3.4615 82.4546 5.21561 82.4891 7.18653C82.4947 8.14637 82.8813 9.0647 83.5639 9.73948C83.9019 10.0736 84.3024 10.3379 84.7426 10.5172C85.1827 10.6965 85.6539 10.7874 86.1291 10.7847C86.6044 10.7819 87.0745 10.6856 87.5125 10.5012C87.9505 10.3168 88.348 10.0479 88.6821 9.70987C89.0162 9.37186 89.2805 8.97135 89.4598 8.53121C89.6391 8.09107 89.73 7.61991 89.7273 7.14465Z" fill="#232021"/>
</svg>
