<svg width="122" height="23" viewBox="0 0 122 23" fill="none" xmlns="http://www.w3.org/2000/svg">
<g clip-path="url(#clip0)">
<path d="M0 16.5387V0.355682H5.48726V16.5387C5.48726 17.5464 5.85307 18.2577 6.52374 18.6134C7.1944 18.9691 8.35282 19.2062 9.999 19.2062C11.6452 19.2062 12.7426 19.0284 13.4133 18.6134C14.084 18.2577 14.3888 17.5464 14.3888 16.5387V0.355682H19.8761V16.5387C19.8761 20.866 16.5227 23 9.87706 23C3.29235 23 0 20.866 0 16.5387Z" fill="white"/>
<path d="M24.8144 0.355682H30.4236L41.4591 15.5902V0.355682H46.3976V22.6443H40.7884L29.6919 7.17269V22.6443H24.7534V0.355682H24.8144Z" fill="white"/>
<path d="M51.3364 0.355682H56.8237V22.6443H51.3364V0.355682Z" fill="white"/>
<path d="M67.1276 4.1495H60.0552V0.355682H79.6874V4.1495H72.6759V22.6443H67.1886V4.1495H67.1276Z" fill="white"/>
<path d="M82.8574 0.355682H100.356V4.1495H88.3446V9.24743H99.1362V13.0412H88.3446V18.7913H100.66V22.5851H82.7964V0.355682H82.8574Z" fill="white"/>
<path d="M111.818 22.8814C111.026 22.7629 110.111 22.6443 109.136 22.3479C108.038 22.0515 107.185 21.6959 106.453 21.2809C105.721 20.866 105.173 20.2139 104.685 19.384C104.197 18.5541 103.953 17.6057 103.953 16.5387V6.75773C103.953 2.25258 107.489 0 114.623 0C116.452 0 118.891 0.237113 121.878 0.770619V4.80155C119.135 4.14948 116.757 3.85309 114.684 3.85309C113.83 3.85309 113.16 3.85309 112.672 3.91237C112.184 3.97165 111.696 4.09021 111.148 4.26804C110.05 4.62371 109.501 5.45361 109.501 6.69845V16.183C109.501 18.1985 111.391 19.2062 115.172 19.2062C116.818 19.2062 119.074 18.8505 122.061 18.1985V22.2294C119.561 22.7629 117.062 23 114.623 23C113.525 23 112.611 22.9407 111.818 22.8814Z" fill="white"/>
</g>
<defs>
<clipPath id="clip0">
<rect width="122" height="23" fill="white"/>
</clipPath>
</defs>
</svg>
