<svg width="18" height="18" viewBox="0 0 18 18" fill="none" xmlns="http://www.w3.org/2000/svg">
<path d="M13 3H16C16.2652 3 16.5196 3.10536 16.7071 3.29289C16.8946 3.48043 17 3.73478 17 4V15C17 15.5304 16.7893 16.0391 16.4142 16.4142C16.0391 16.7893 15.5304 17 15 17C14.4696 17 13.9609 16.7893 13.5858 16.4142C13.2107 16.0391 13 15.5304 13 15V2C13 1.73478 12.8946 1.48043 12.7071 1.29289C12.5196 1.10536 12.2652 1 12 1H2C1.73478 1 1.48043 1.10536 1.29289 1.29289C1.10536 1.48043 1 1.73478 1 2V14C1 14.7956 1.31607 15.5587 1.87868 16.1213C2.44129 16.6839 3.20435 17 4 17H15" stroke="#235E8F" stroke-width="2" stroke-linecap="round" stroke-linejoin="round"/>
<path d="M5 5H9" stroke="#235E8F" stroke-width="2" stroke-linecap="round" stroke-linejoin="round"/>
<path d="M5 9H9" stroke="#235E8F" stroke-width="2" stroke-linecap="round" stroke-linejoin="round"/>
<path d="M5 13H9" stroke="#235E8F" stroke-width="2" stroke-linecap="round" stroke-linejoin="round"/>
</svg>
