<svg width="14" height="14" viewBox="0 0 14 14" fill="none" xmlns="http://www.w3.org/2000/svg">
<path d="M9.33393 9.94971L10.5395 8.74368C10.7018 8.58326 10.9073 8.47345 11.1308 8.42757C11.3544 8.3817 11.5864 8.40174 11.7988 8.48525L13.2681 9.07211C13.4827 9.15927 13.6667 9.30803 13.797 9.49966C13.9272 9.69128 13.9979 9.91719 14 10.1489V12.8409C13.9988 12.9986 13.9656 13.1543 13.9026 13.2988C13.8396 13.4433 13.748 13.5735 13.6334 13.6817C13.5188 13.7898 13.3834 13.8737 13.2355 13.9281C13.0877 13.9825 12.9303 14.0065 12.7729 13.9985C2.47744 13.3578 0.400043 4.63567 0.00716727 1.29757C-0.0110703 1.13365 0.00559289 0.967719 0.0560605 0.8107C0.106528 0.653681 0.189656 0.509132 0.299977 0.386561C0.410297 0.26399 0.545309 0.166176 0.69613 0.0995532C0.846951 0.0329307 1.01016 -0.000990209 1.17503 2.2004e-05H3.77447C4.00643 0.000708891 4.23288 0.0708044 4.4247 0.201293C4.61652 0.331781 4.76493 0.516695 4.85084 0.73225L5.43746 2.20209C5.52371 2.41372 5.54571 2.64608 5.50073 2.87015C5.45574 3.09421 5.34576 3.30005 5.18452 3.46195L3.97898 4.66797C3.97898 4.66797 4.67324 9.36823 9.33393 9.94971Z" fill="#235E8F"/>
</svg>
