<svg width="52" height="52" viewBox="0 0 52 52" fill="none" xmlns="http://www.w3.org/2000/svg">
<path d="M26 0C11.642 0 0 11.642 0 26C0 40.358 11.642 52 26 52C40.358 52 52 40.358 52 26C52 11.642 40.358 0 26 0ZM34.3629 26.4004L21.6879 35.6223C21.6185 35.6723 21.5365 35.7021 21.4512 35.7085C21.3659 35.7149 21.2804 35.6977 21.2043 35.6587C21.1281 35.6197 21.0642 35.5605 21.0195 35.4875C20.9748 35.4145 20.951 35.3307 20.9509 35.2451V16.8129C20.9506 16.7272 20.9741 16.6431 21.0187 16.5698C21.0633 16.4966 21.1273 16.4372 21.2036 16.3981C21.28 16.3591 21.3656 16.3419 21.4511 16.3485C21.5366 16.3552 21.6186 16.3853 21.6879 16.4357L34.3629 25.6518C34.4228 25.6941 34.4717 25.7502 34.5054 25.8154C34.5391 25.8805 34.5567 25.9528 34.5567 26.0261C34.5567 26.0995 34.5391 26.1717 34.5054 26.2369C34.4717 26.302 34.4228 26.3581 34.3629 26.4004Z" fill="white"/>
</svg>
