<svg width="15" height="15" viewBox="0 0 15 15" fill="none" xmlns="http://www.w3.org/2000/svg">
<path d="M15 13.3335L10.7054 9.03889C11.4994 7.83225 11.8173 6.37395 11.5978 4.94631C11.3783 3.51868 10.6369 2.22328 9.51709 1.31091C8.3973 0.398548 6.97882 -0.0658807 5.53628 0.00754708C4.09373 0.0809749 2.72974 0.687035 1.70839 1.70839C0.687035 2.72974 0.0809749 4.09373 0.00754708 5.53628C-0.0658807 6.97882 0.398548 8.3973 1.31091 9.51709C2.22328 10.6369 3.51868 11.3783 4.94631 11.5978C6.37395 11.8173 7.83225 11.4994 9.03889 10.7054L13.3335 15L15 13.3335ZM1.66792 5.83419C1.66792 3.53691 3.53691 1.66792 5.83419 1.66792C8.13148 1.66792 10.0005 3.53691 10.0005 5.83419C10.0005 8.13148 8.13148 10.0005 5.83419 10.0005C3.53691 10.0005 1.66792 8.13148 1.66792 5.83419Z" fill="white"/>
</svg>
