<svg width="20" height="20" viewBox="0 0 20 20" fill="none" xmlns="http://www.w3.org/2000/svg">
<path d="M18.0165 9.724C17.2548 10.4872 16.284 11.0075 15.2267 11.219C14.1693 11.4304 13.0731 11.3236 12.0765 10.912L5.58446 18.736C4.39646 19.924 2.47646 19.924 1.28846 18.736C0.100461 17.548 0.100461 15.628 1.28846 14.452L9.11246 7.948C8.29646 5.968 8.69246 3.616 10.3005 2.008C11.8365 0.471997 14.0445 0.0639975 15.9645 0.735997L12.4965 4.204L15.8805 7.588L19.3125 4.144C19.9485 6.04 19.5285 8.212 18.0165 9.724ZM2.57246 17.452C3.05246 17.92 3.82046 17.92 4.28846 17.452C4.76846 16.972 4.76846 16.204 4.28846 15.736C3.82046 15.256 3.05246 15.256 2.57246 15.736C2.34747 15.9649 2.22139 16.273 2.22139 16.594C2.22139 16.915 2.34747 17.2231 2.57246 17.452Z" fill="#235E8F"/>
</svg>
